HIERARCHY
ROOT Hips
{
	OFFSET 0.000000 0.000000 0.000000
	CHANNELS 6 Xposition Yposition Zposition Zrotation Yrotation Xrotation 
	JOINT LHipJoint
	{
		OFFSET 0.000000 0.000000 0.000000
		CHANNELS 3 Zrotation Yrotation Xrotation
		JOINT LeftUpLeg
		{
			OFFSET 1.363060 -1.794630 0.839290
			CHANNELS 3 Zrotation Yrotation Xrotation
			JOINT LeftLeg
			{
				OFFSET 2.448110 -6.726130 0.000000
				CHANNELS 3 Zrotation Yrotation Xrotation
				JOINT LeftFoot
				{
					OFFSET 2.562200 -7.039590 0.000000
					CHANNELS 3 Zrotation Yrotation Xrotation
					JOINT LeftToeBase
					{
						OFFSET 0.157640 -0.433110 2.322550
						CHANNELS 3 Zrotation Yrotation Xrotation
						End Site
						{
							OFFSET 0.000000 0.000000 0.000000
						}
					}
				}
			}
		}
	}
	JOINT RHipJoint
	{
		OFFSET 0.000000 0.000000 0.000000
		CHANNELS 3 Zrotation Yrotation Xrotation
		JOINT RightUpLeg
		{
			OFFSET -1.305520 -1.794630 0.839290
			CHANNELS 3 Zrotation Yrotation Xrotation
			JOINT RightLeg
			{
				OFFSET -2.542530 -6.985550 0.000000
				CHANNELS 3 Zrotation Yrotation Xrotation
				JOINT RightFoot
				{
					OFFSET -2.568260 -7.056230 0.000000
					CHANNELS 3 Zrotation Yrotation Xrotation
					JOINT RightToeBase
					{
						OFFSET -0.164730 -0.452590 2.363150
						CHANNELS 3 Zrotation Yrotation Xrotation
						End Site
						{
							OFFSET 0.000000 0.000000 0.000000
						}
					}
				}
			}
		}
	}
	JOINT LowerBack
	{
		OFFSET 0.000000 0.000000 0.000000
		CHANNELS 3 Zrotation Yrotation Xrotation
		JOINT Spine
		{
			OFFSET 0.028270 2.035590 -0.193380
			CHANNELS 3 Zrotation Yrotation Xrotation
			JOINT Spine1
			{
				OFFSET 0.056720 2.048850 -0.042750
				CHANNELS 3 Zrotation Yrotation Xrotation
				JOINT Neck
				{
					OFFSET 0.000000 0.000000 0.000000
					CHANNELS 3 Zrotation Yrotation Xrotation
					JOINT Neck1
					{
						OFFSET -0.054170 1.746240 0.172020
						CHANNELS 3 Zrotation Yrotation Xrotation
						JOINT Head
						{
							OFFSET 0.104070 1.761360 -0.123970
							CHANNELS 3 Zrotation Yrotation Xrotation
							End Site
							{
								OFFSET 0.000000 0.000000 0.000000
							}
						}
					}
				}
				JOINT LeftShoulder
				{
					OFFSET 0.000000 0.000000 0.000000
					CHANNELS 3 Zrotation Yrotation Xrotation
					JOINT LeftArm
					{
						OFFSET 3.362410 1.200890 -0.311210
						CHANNELS 3 Zrotation Yrotation Xrotation
						JOINT LeftForeArm
						{
							OFFSET 4.983000 -0.000000 -0.000000
							CHANNELS 3 Zrotation Yrotation Xrotation
							JOINT LeftHand
							{
								OFFSET 3.483560 -0.000000 -0.000000
								CHANNELS 3 Zrotation Yrotation Xrotation
								JOINT LeftFingerBase
								{
									OFFSET 0.000000 0.000000 0.000000
									CHANNELS 3 Zrotation Yrotation Xrotation
									JOINT LeftHandIndex1
									{
										OFFSET 0.715260 -0.000000 -0.000000
										CHANNELS 3 Zrotation Yrotation Xrotation
										End Site
										{
											OFFSET 0.000000 0.000000 0.000000
										}
									}
								}
								JOINT LThumb
								{
									OFFSET 0.000000 0.000000 0.000000
									CHANNELS 3 Zrotation Yrotation Xrotation
									End Site
									{
										OFFSET 0.000000 0.000000 0.000000
									}
								}
							}
						}
					}
				}
				JOINT RightShoulder
				{
					OFFSET 0.000000 0.000000 0.000000
					CHANNELS 3 Zrotation Yrotation Xrotation
					JOINT RightArm
					{
						OFFSET -3.136600 1.374050 -0.404650
						CHANNELS 3 Zrotation Yrotation Xrotation
						JOINT RightForeArm
						{
							OFFSET -5.241900 -0.000000 -0.000000
							CHANNELS 3 Zrotation Yrotation Xrotation
							JOINT RightHand
							{
								OFFSET -3.444170 -0.000000 -0.000000
								CHANNELS 3 Zrotation Yrotation Xrotation
								JOINT RightFingerBase
								{
									OFFSET 0.000000 0.000000 0.000000
									CHANNELS 3 Zrotation Yrotation Xrotation
									JOINT RightHandIndex1
									{
										OFFSET -0.622530 -0.000000 -0.000000
										CHANNELS 3 Zrotation Yrotation Xrotation
										End Site
										{
											OFFSET 0.000000 0.000000 0.000000
										}
									}
								}
								JOINT RThumb
								{
									OFFSET 0.000000 0.000000 0.000000
									CHANNELS 3 Zrotation Yrotation Xrotation
									End Site
									{
										OFFSET 0.000000 0.000000 0.000000
									}
								}
							}
						}
					}
				}
			}
		}
	}
}
MOTION
Frames: 4
Frame Time: 0.016667
-0.348575 17.253745 -0.348575 2.484377 -12.296826 0.855359 -0.780944 3.927308 12.614002 22.229187 -34.742941 -37.517636 109.958881 -89.696524 -67.323696 -68.937261 -68.242538 64.383424 0.000000 0.000000 0.000000 18.190816 -4.379729 -6.249547 -3.384222 -5.640191 -12.794592 72.561209 10.542105 -19.299185 174.938296 18.105521 41.687575 0.000000 0.000000 0.000000 -13.721803 4.253962 15.932144 8.722211 2.836480 0.751998 5.149131 3.769805 -7.469225 9.843412 -1.314481 -14.648628 -5.020645 -0.584677 -0.262595 0.000000 0.000000 0.000000 5.549916 12.671112 8.203478 -71.853215 -3.439433 16.199557 -44.379041 -60.098113 2.195111 -12.349069 11.122373 1.100600 -12.355489 11.115300 0.000000 0.000000 0.000000 0.000000 0.000000 0.000000 0.000000 -9.845467 -7.990389 10.919453 65.855993 7.062174 16.420322 24.989498 66.048587 0.514269 0.508112 14.071559 0.254599 0.499203 14.078503 0.000000 0.000000 0.000000 0.000000 0.000000 0.000000 0.000000 
-0.352421 17.274122 -0.204459 -4.224618 -4.132105 7.243610 -12.087987 27.499689 26.859494 14.607167 -28.451550 -20.410689 86.689291 30.416502 -81.351126 98.907135 -5.949716 -125.133687 0.000000 0.000000 0.000000 17.391423 -6.946427 -13.343683 9.813784 -3.622760 -3.082778 66.039137 0.254078 -45.330170 154.915239 3.350617 70.685656 0.000000 0.000000 0.000000 -6.509333 0.037234 14.083189 11.655109 1.619154 -4.152788 2.944380 2.775946 -7.990235 4.146254 -0.739967 -7.749590 -1.647430 -0.185562 0.420544 0.000000 0.000000 0.000000 1.990198 11.646931 7.300297 -73.096640 -2.043681 22.453111 -33.432030 -53.842622 0.221211 24.777201 -52.010066 -2.315019 31.490862 -48.229065 -0.000000 0.000000 0.000000 0.000000 0.000000 0.000000 0.000000 -2.883077 -9.805391 9.980100 59.656306 2.059384 22.135854 6.142781 87.348392 -0.146879 -0.908328 -8.094753 -0.073314 -0.906923 -8.094859 0.000000 0.000000 0.000000 0.000000 0.000000 0.000000 0.000000 
-0.353943 17.296318 -0.061009 -4.659552 -1.785970 -5.912288 -10.300066 30.552582 1.791103 -3.007512 -21.515792 -27.060642 92.251350 -73.436795 -85.657779 78.583851 -42.644213 -77.395232 0.000000 0.000000 0.000000 14.775471 -11.521841 -9.387409 10.300882 -1.225039 0.556854 42.715202 26.884561 -22.836848 172.674768 66.988398 106.015580 0.000000 0.000000 0.000000 -4.550320 0.116201 25.648149 10.990133 2.141594 -2.538161 1.041943 3.404700 -9.338242 0.053114 -0.036860 -1.592063 1.299975 -0.008970 1.938888 0.000000 0.000000 0.000000 -1.917352 12.160212 9.945351 -71.455306 -1.555489 22.278862 -2.228131 -76.226229 -3.091920 29.390226 -33.014092 -3.003366 33.061072 -30.511258 0.000000 0.000000 0.000000 0.000000 0.000000 0.000000 0.000000 3.403723 -11.590071 6.587433 55.877190 -0.284514 19.157387 172.365670 78.346816 179.065763 5.453843 -31.936086 -0.508761 5.864513 -31.885397 0.000000 0.000000 0.000000 0.000000 0.000000 0.000000 0.000000 
-0.268446 17.380745 0.167032 -10.040266 -8.064109 -1.902350 -23.163326 38.506564 -5.860015 20.462934 -14.807715 -38.648910 75.890234 -75.411037 -102.369988 98.377008 -63.664943 -109.539927 0.000000 0.000000 0.000000 14.419744 -27.124562 -10.422992 23.425413 2.420387 -4.076389 51.675744 58.597049 7.563821 34.579576 -9.627419 -61.628144 0.000000 0.000000 0.000000 2.389931 2.584273 21.570587 9.874693 3.969136 -1.589121 -1.543986 4.692208 -10.532893 -2.841698 0.431578 3.746537 2.596820 -0.220081 5.725696 0.000000 0.000000 0.000000 -4.713091 13.872953 10.755454 -68.518714 -2.629987 16.955841 15.178814 -82.768680 1.287166 25.490273 -29.557755 0.803253 25.559029 -28.860792 -0.000000 0.000000 0.000000 0.000000 0.000000 0.000000 0.000000 6.632530 -12.609361 4.194934 55.032985 -0.325675 18.203537 169.340576 72.568373 177.423419 12.143153 -47.716843 -1.820180 14.881062 -47.040316 0.000000 0.000000 0.000000 0.000000 0.000000 0.000000 0.000000 
